<?xml version="1.0" standalone="no"?>
<!DOCTYPE svg PUBLIC "-//W3C//DTD SVG 20010904//EN"
 "http://www.w3.org/TR/2001/REC-SVG-20010904/DTD/svg10.dtd">
<svg version="1.0" xmlns="http://www.w3.org/2000/svg"
 width="1500.000000pt" height="1500.000000pt" viewBox="0 0 1500.000000 1500.000000"
 preserveAspectRatio="xMidYMid meet">

<g transform="translate(0.000000,1500.000000) scale(0.100000,-0.100000)"
fill="#000000" stroke="none">
<path d="M6980 9805 c-291 -78 -349 -99 -422 -153 -96 -70 -163 -166 -223
-317 -54 -134 -92 -387 -80 -531 4 -55 3 -84 -4 -89 -6 -3 -14 2 -18 12 -3 10
-12 25 -18 33 -7 8 -31 76 -53 150 -57 188 -114 344 -152 416 -89 170 -254
303 -435 350 -119 30 -448 55 -512 38 -13 -4 -23 -11 -23 -17 0 -5 20 -44 44
-86 24 -42 69 -132 101 -201 145 -311 252 -431 443 -496 69 -24 96 -27 256
-32 l179 -5 -6 30 c-13 65 -120 207 -237 314 -143 131 -240 228 -240 239 0 30
63 -7 185 -110 233 -197 369 -392 415 -597 11 -48 27 -117 35 -153 7 -36 21
-84 29 -108 18 -50 96 -212 103 -212 2 0 2 19 -1 43 -3 23 -12 96 -21 162 -18
141 -20 342 -4 434 14 82 46 151 101 218 24 29 89 108 145 176 102 125 168
187 197 187 9 0 16 -7 16 -15 0 -8 5 -15 11 -15 7 0 6 8 -4 23 -9 12 -23 21
-34 19 -64 -11 -73 -15 -71 -30 2 -8 -4 -17 -12 -19 -13 -4 -13 -3 0 7 13 10
13 11 -2 6 -12 -4 -18 0 -19 12 0 9 -3 12 -5 5 -3 -7 -1 -21 5 -31 8 -15 7
-21 -4 -26 -8 -3 -27 -26 -43 -52 -16 -25 -32 -42 -36 -36 -3 5 1 12 9 16 8 3
15 11 15 17 0 8 -4 8 -15 -1 -10 -9 -15 -9 -15 -1 0 10 14 15 33 12 5 -1 6 7
2 18 -3 11 -1 22 5 26 12 8 13 35 1 35 -5 0 -11 -9 -14 -21 -3 -12 -10 -18
-16 -14 -7 3 -11 -3 -11 -15 0 -12 -4 -19 -9 -15 -6 3 -8 -16 -5 -47 5 -52 5
-52 -16 -33 -11 10 -21 16 -23 14 -1 -2 -9 -12 -16 -22 -12 -15 -12 -17 1 -12
10 4 14 -2 13 -18 0 -15 -17 -41 -44 -68 -30 -30 -39 -35 -28 -17 15 23 15 27
1 32 -23 9 -31 7 -15 -3 7 -5 10 -14 6 -21 -6 -9 -9 -9 -15 0 -4 7 -10 0 -13
-19 -4 -17 -12 -31 -18 -31 -15 0 -38 -30 -38 -50 0 -12 2 -11 10 3 5 9 15 17
20 17 13 0 1 -39 -17 -58 -8 -7 -17 -24 -20 -38 -6 -23 -7 -23 -19 -7 -12 16
-13 15 -12 -9 1 -14 6 -24 11 -21 10 7 -3 -58 -15 -73 -5 -6 -9 -47 -10 -92
-2 -45 -6 -82 -11 -82 -4 0 -7 38 -6 85 2 47 6 85 11 85 4 0 7 10 6 23 0 21
-1 21 -9 2 -7 -16 -9 -13 -9 18 -1 20 3 37 8 37 5 0 7 19 5 43 -3 26 -1 35 4
24 5 -13 8 -1 9 37 1 57 13 105 39 163 8 17 14 44 14 60 l1 28 16 -30 c11 -19
18 -25 21 -16 2 7 0 16 -6 20 -18 11 -16 35 7 81 40 83 66 125 75 120 5 -3 12
5 17 18 5 12 16 22 24 22 9 0 13 5 10 10 -10 16 37 50 52 38 7 -6 10 -14 7
-19 -3 -5 0 -9 5 -9 6 0 11 -7 11 -15 0 -8 5 -15 10 -15 6 0 10 7 10 15 0 8 5
15 12 15 17 0 3 11 -19 14 -26 4 -25 50 2 54 16 3 17 1 5 -7 -11 -8 -4 -9 25
-4 51 7 58 13 17 13 -18 0 -32 5 -32 11 0 6 6 9 12 7 7 -3 18 1 24 7 7 6 43
19 80 29 38 10 79 23 92 29 13 6 42 11 65 10 31 -1 37 1 22 7 -17 7 -14 9 13
9 18 1 31 5 28 9 -5 8 2 10 60 15 17 2 36 7 43 11 7 4 23 5 36 2 17 -4 27 -1
34 11 5 10 11 16 13 13 2 -3 1 -54 -1 -115 -2 -66 -6 -102 -11 -90 -4 11 -5
-10 -3 -46 5 -63 4 -66 -18 -74 -20 -6 -21 -8 -6 -12 21 -5 21 -3 1 -43 -10
-18 -17 -47 -16 -64 1 -23 -2 -27 -10 -16 -8 13 -9 12 -5 -2 8 -25 -68 -162
-84 -152 -5 3 -6 -2 -3 -10 3 -8 -3 -23 -14 -34 -11 -11 -22 -26 -25 -33 -5
-12 -7 -11 -16 1 -7 10 -11 11 -11 3 0 -7 -5 -13 -11 -13 -5 0 -7 5 -4 10 3 6
2 10 -3 10 -6 0 -13 -7 -16 -16 -4 -9 -2 -13 5 -8 8 4 9 -1 4 -17 -10 -32 -9
-31 -47 -34 l-33 -3 4 44 c2 28 -1 44 -8 44 -7 0 -11 -19 -10 -50 1 -27 7 -50
12 -50 5 0 3 -8 -4 -17 -12 -14 -12 -16 0 -8 10 5 12 4 7 -3 -4 -7 -16 -12
-27 -12 -11 0 -29 -5 -40 -10 -10 -6 -35 -11 -54 -12 -19 -1 -35 -5 -35 -11 0
-5 -26 -8 -57 -6 -32 1 -66 -1 -75 -5 -10 -5 -25 -5 -34 -2 -13 5 -14 9 -4 21
10 12 9 15 -8 15 -25 0 -36 37 -17 56 8 8 17 23 20 34 3 11 11 20 16 20 6 0 6
-6 0 -18 -6 -11 -5 -27 3 -47 l13 -30 12 23 c14 27 7 44 -16 35 -13 -5 -12 -1
3 23 11 15 13 25 7 21 -7 -5 -13 -4 -13 2 0 19 19 21 30 4 8 -15 10 -12 6 15
-4 29 -3 32 12 20 13 -11 15 -11 9 4 -3 9 -3 18 1 20 4 2 17 18 29 37 l21 35
10 -35 c11 -41 5 -51 -14 -25 -12 17 -14 18 -14 3 0 -9 5 -17 10 -17 6 0 10
-4 10 -10 0 -5 -8 -10 -17 -10 -9 0 -14 -3 -10 -6 3 -4 14 -3 24 1 10 5 26 7
36 6 21 -3 22 22 2 39 -9 8 -13 21 -10 34 5 17 4 18 -4 6 -9 -13 -11 -12 -11
6 0 12 9 31 20 44 11 12 22 31 26 42 6 19 6 19 26 1 21 -18 21 -18 9 5 -11 21
-10 27 10 48 17 18 26 21 40 14 24 -14 49 -13 29 0 -8 5 -10 10 -4 10 16 0 12
33 -5 44 -15 10 -56 -30 -123 -123 -23 -31 -80 -103 -128 -161 -89 -108 -122
-157 -135 -199 l-7 -24 148 6 c170 7 257 28 319 77 21 16 41 30 46 30 4 0 33
30 64 68 49 59 96 142 148 262 21 48 47 245 47 352 l0 88 -27 -1 c-16 0 -84
-15 -153 -34z m-1850 -99 c0 -2 3 -11 6 -20 4 -10 1 -16 -9 -16 -8 0 -18 -8
-22 -17 -5 -15 -4 -16 6 -5 7 6 21 12 31 12 10 0 17 5 16 12 -2 6 6 14 16 16
14 3 17 0 13 -12 -4 -11 1 -18 19 -22 14 -4 28 -4 31 0 4 3 -3 6 -15 6 -16 0
-22 6 -22 21 0 21 8 21 85 3 16 -4 17 -3 5 5 -13 10 -13 11 0 11 8 0 31 -5 50
-10 20 -5 65 -12 102 -14 86 -5 117 -20 62 -31 -22 -4 -44 -11 -51 -17 -7 -5
-18 -6 -24 -2 -8 4 -9 3 -5 -4 4 -7 2 -12 -5 -12 -8 0 -7 -5 2 -17 12 -15 12
-16 -1 -8 -13 7 -13 6 -1 -6 10 -11 15 -11 18 -1 3 6 9 12 14 12 6 0 8 -4 5
-9 -3 -5 1 -11 9 -15 17 -6 34 21 32 49 -2 18 4 20 45 17 25 -2 49 2 53 8 3 5
-2 10 -12 11 -10 0 -13 3 -7 5 7 3 28 -4 48 -16 20 -11 40 -20 45 -20 20 0 85
-33 73 -37 -10 -4 -8 -9 5 -19 21 -16 37 -18 28 -4 -3 6 1 7 10 3 13 -5 14 -7
3 -14 -12 -8 -4 -13 16 -10 15 3 55 -40 50 -53 -3 -7 2 -19 11 -26 17 -14 20
-40 5 -40 -5 0 -10 8 -10 18 0 14 -2 15 -10 2 -12 -19 -13 -33 -1 -26 5 4 11
1 13 -6 3 -9 9 -8 21 4 21 21 21 27 0 50 -9 10 -12 18 -7 18 12 0 84 -98 98
-132 6 -16 13 -28 17 -28 3 0 11 -17 17 -37 24 -84 32 -107 27 -84 -5 28 6 18
23 -21 7 -17 8 -28 2 -28 -6 0 -10 4 -10 8 0 11 -39 13 -45 1 -3 -5 2 -6 12
-3 15 5 16 4 3 -5 -12 -9 -19 -6 -35 16 -11 15 -32 39 -47 54 l-27 26 24 -5
c14 -2 22 -8 19 -13 -3 -5 2 -9 11 -9 9 0 13 -5 9 -11 -4 -7 -1 -10 6 -7 23 7
33 34 25 64 l-7 29 -10 -28 c-10 -27 -11 -27 -29 -11 -22 20 -25 44 -6 44 7 0
14 12 15 26 2 22 0 24 -13 10 -8 -8 -15 -19 -15 -24 0 -11 -36 -23 -44 -15 -3
3 8 16 25 30 16 14 29 30 29 36 0 6 -9 1 -20 -10 -10 -12 -28 -24 -40 -28 -28
-9 -25 -32 5 -39 24 -6 36 -26 15 -26 -19 0 -109 75 -105 87 2 7 -2 10 -11 6
-10 -4 -12 0 -8 12 6 14 3 16 -14 10 -14 -4 -22 -2 -22 5 0 6 4 9 9 6 4 -3 17
2 27 10 18 14 17 15 -11 10 -31 -4 -95 26 -95 45 0 6 -5 7 -12 3 -7 -4 -8 -3
-4 4 4 7 14 12 22 12 16 0 19 26 4 35 -6 3 -13 -2 -17 -12 -4 -10 -11 -21 -17
-25 -13 -8 -36 9 -36 27 0 8 -6 15 -12 18 -10 3 -10 9 0 26 17 28 17 28 -30
28 -24 0 -33 -2 -20 -4 19 -4 22 -11 22 -50 0 -36 -3 -44 -15 -39 -13 4 -14 2
-5 -14 6 -12 7 -20 1 -20 -5 0 -11 6 -14 13 -2 6 -8 9 -12 5 -4 -4 -2 -14 4
-22 7 -8 10 -20 6 -26 -8 -13 1 -13 25 2 16 10 22 8 42 -17 13 -17 42 -48 66
-71 42 -40 42 -41 22 -59 -11 -10 -20 -13 -20 -7 0 7 -14 11 -32 10 -18 -1
-40 0 -48 3 -21 6 -25 -37 -5 -58 16 -15 17 -15 15 3 -5 43 0 45 38 17 20 -15
31 -20 24 -11 -16 21 -8 25 45 23 23 0 39 3 36 7 -2 5 -14 6 -26 2 -19 -6 -20
-5 -8 10 12 14 16 14 46 -12 19 -15 34 -31 34 -36 1 -5 -5 -3 -13 3 -15 13
-46 5 -46 -11 0 -12 30 -37 43 -38 5 0 1 7 -7 16 -9 8 -16 21 -16 27 0 8 3 7
9 -2 6 -8 16 -11 31 -6 19 6 22 4 17 -10 -5 -11 -3 -15 5 -13 13 5 58 -30 58
-45 0 -6 -9 -2 -19 7 -19 17 -19 17 -14 -5 4 -15 3 -20 -5 -15 -8 5 -10 1 -5
-10 4 -12 8 -14 11 -5 3 9 8 9 21 -2 9 -8 24 -17 33 -20 13 -5 15 -2 11 11 -4
10 2 7 14 -8 11 -13 19 -30 16 -37 -3 -6 0 -20 7 -30 9 -16 10 -15 5 7 l-6 25
21 -25 c11 -14 25 -33 31 -43 9 -15 7 -17 -15 -11 -16 4 -26 2 -26 -5 0 -6 13
-11 29 -11 23 0 31 -6 39 -29 10 -28 9 -30 -16 -35 -36 -6 -46 -6 -207 10
-144 14 -204 28 -218 50 -4 7 -14 11 -21 8 -8 -3 -25 5 -38 19 -13 13 -29 22
-36 21 -7 -1 -8 0 -2 3 17 8 11 25 -8 19 -13 -4 -32 8 -65 43 -48 50 -55 65
-37 76 16 10 41 -16 35 -35 -3 -11 1 -20 11 -24 9 -4 14 -9 11 -13 -7 -7 23
-32 38 -32 6 0 1 6 -9 14 -11 8 -16 15 -11 15 5 0 0 7 -12 15 -14 10 -19 22
-16 35 3 11 0 20 -6 20 -6 0 -11 7 -11 15 0 9 -9 15 -25 15 -14 0 -24 -3 -23
-7 2 -5 -1 -9 -7 -10 -5 -1 -10 6 -9 16 0 12 -5 17 -13 14 -7 -3 -13 0 -13 7
0 7 -8 19 -17 26 -10 7 -15 15 -12 19 4 3 14 -1 22 -10 15 -15 36 -17 47 -4 3
3 17 9 32 12 22 6 28 3 33 -14 5 -14 10 -18 14 -10 6 9 11 8 20 -3 14 -17 7
-36 -15 -36 -8 0 -14 -4 -14 -9 0 -14 32 -22 45 -11 7 6 19 8 26 5 8 -3 28 -1
44 4 17 5 22 10 13 10 -10 1 -18 6 -18 11 0 6 -5 10 -11 10 -6 0 -9 -7 -5 -15
4 -13 2 -14 -14 -5 -25 14 -25 21 1 43 11 10 18 21 14 25 -3 4 -11 -1 -16 -11
-17 -29 -72 -15 -65 17 2 6 1 8 -1 3 -10 -16 -23 6 -23 39 0 19 -4 34 -10 34
-5 0 -10 -18 -10 -40 0 -31 -4 -40 -17 -41 -10 0 -28 -2 -40 -5 -13 -2 -23 0
-23 5 0 5 -9 13 -20 16 -28 9 -90 134 -90 182 0 21 -5 45 -10 53 -6 10 -10 11
-10 3 0 -28 -19 -11 -26 22 -3 19 -10 38 -15 41 -5 3 -9 12 -9 21 0 13 3 13
15 3 8 -7 15 -20 15 -29 0 -13 2 -13 9 -2 6 9 11 10 15 2 4 -6 12 -9 17 -6 11
7 -6 26 -39 44 -12 6 -25 23 -28 36 -8 32 -17 32 -32 -2 -6 -16 -10 -21 -8
-13 1 8 -6 23 -16 34 -22 24 -24 56 -2 56 13 0 14 -3 5 -14 -7 -9 -8 -17 -3
-20 6 -3 13 5 16 19 4 14 11 25 16 25 6 0 10 -2 10 -4z m67 -253 c1 -22 -1
-24 -8 -10 -6 9 -7 22 -4 27 9 14 10 13 12 -17z m1573 -23 c0 -5 -5 -10 -11
-10 -5 0 -7 5 -4 10 3 6 8 10 11 10 2 0 4 -4 4 -10z m-233 -127 c2 -6 -3 -13
-11 -16 -10 -4 -14 0 -13 14 1 20 18 21 24 2z m-136 -166 c-16 -16 -26 0 -10
19 9 11 15 12 17 4 2 -6 -1 -17 -7 -23z m-336 -11 c10 -15 13 -30 8 -44 -8
-20 -8 -19 -26 4 -10 13 -13 24 -7 24 5 0 10 4 10 10 0 5 -7 7 -15 4 -15 -6
-21 7 -8 19 12 12 22 7 38 -17z m851 -21 c-9 -9 -16 -13 -16 -8 0 12 22 34 28
28 2 -2 -3 -11 -12 -20z m-66 -44 c0 -6 -4 -13 -10 -16 -5 -3 -10 1 -10 9 0 9
5 16 10 16 6 0 10 -4 10 -9z m-731 -62 c27 -61 27 -87 1 -34 -11 22 -26 49
-35 61 -13 18 -13 21 -1 21 8 0 24 -22 35 -48z m349 1 c5 0 9 -7 9 -15 0 -10
-11 -15 -33 -15 -26 0 -32 3 -28 15 4 11 13 14 28 9 20 -6 20 -6 2 8 -12 10
-16 20 -11 28 6 10 10 8 16 -8 5 -12 12 -22 17 -22z m-254 -264 c9 -14 12 -27
8 -30 -5 -3 -13 8 -19 25 -14 35 -10 37 11 5z m36 -47 c0 -5 -4 -7 -10 -4 -5
3 -10 2 -10 -4 0 -20 19 -21 25 -2 4 12 12 18 21 14 16 -6 20 -78 4 -88 -5 -3
-10 -12 -10 -18 0 -8 3 -8 9 1 9 15 22 -28 26 -88 1 -19 7 -55 13 -80 18 -73
12 -90 -10 -27 -11 31 -23 55 -28 52 -10 -6 -23 62 -14 76 4 6 1 15 -5 19 -11
6 -18 27 -38 107 -3 13 -3 29 1 38 6 17 26 20 26 4z"/>
<path d="M5418 9653 c12 -2 30 -2 40 0 9 3 -1 5 -23 4 -22 0 -30 -2 -17 -4z"/>
<path d="M5353 9643 c-7 -2 -13 -14 -13 -25 0 -18 2 -19 21 -7 31 21 25 46 -8
32z"/>
<path d="M5182 9615 c13 -28 28 -24 28 8 0 18 -2 19 -10 7 -6 -10 -10 -11 -10
-2 0 6 -4 12 -10 12 -6 0 -5 -10 2 -25z"/>
<path d="M5240 9627 c0 -8 9 -22 20 -32 22 -20 27 -7 10 26 -12 22 -30 25 -30
6z"/>
<path d="M5619 9606 c16 -19 44 -21 39 -3 -3 6 -15 14 -28 15 -21 3 -22 2 -11
-12z"/>
<path d="M5683 9590 c2 -11 8 -25 14 -31 6 -6 9 -17 7 -24 -3 -7 2 -15 10 -18
10 -4 14 0 13 14 -1 10 -5 19 -10 19 -4 0 -5 5 -2 10 3 6 0 10 -7 10 -10 0
-10 2 -1 8 9 6 7 11 -7 20 -17 11 -20 10 -17 -8z"/>
<path d="M5367 9583 c-10 -9 -9 -23 1 -23 5 0 9 7 9 15 0 17 -1 18 -10 8z"/>
<path d="M5255 9550 c3 -5 17 -10 31 -10 14 0 22 4 19 10 -3 6 -17 10 -31 10
-14 0 -22 -4 -19 -10z"/>
<path d="M5340 9542 c0 -5 7 -22 15 -38 10 -21 12 -40 6 -67 -7 -29 -6 -37 5
-37 8 0 14 -5 14 -11 0 -5 4 -8 10 -4 5 3 6 13 3 21 -6 16 12 34 35 34 6 0 12
-12 13 -27 0 -25 1 -26 9 -8 4 11 4 24 -1 30 -14 14 -11 22 14 31 17 6 8 9
-35 11 -32 2 -58 8 -58 13 0 6 9 10 19 10 23 0 37 18 25 30 -14 12 -74 23 -74
12z"/>
<path d="M5440 9538 c0 -11 39 -20 60 -13 33 10 23 20 -20 20 -22 0 -40 -3
-40 -7z"/>
<path d="M5810 9510 c0 -5 5 -10 11 -10 5 0 7 5 4 10 -3 6 -8 10 -11 10 -2 0
-4 -4 -4 -10z"/>
<path d="M5287 9503 c-13 -12 -7 -51 9 -57 27 -10 44 -7 44 9 0 12 -4 13 -19
6 -14 -8 -20 -7 -24 4 -3 7 -2 15 3 17 5 2 6 9 1 16 -4 7 -10 9 -14 5z"/>
<path d="M5235 9490 c-3 -5 1 -10 9 -10 9 0 16 5 16 10 0 6 -4 10 -9 10 -6 0
-13 -4 -16 -10z"/>
<path d="M5756 9454 c-9 -22 -8 -23 14 -17 23 6 26 19 6 26 -8 3 -17 -1 -20
-9z"/>
<path d="M5240 9431 c0 -18 -5 -31 -12 -31 -9 0 -9 -3 -2 -8 6 -4 14 -16 17
-26 4 -10 10 -16 13 -13 3 3 1 14 -5 25 -8 15 -7 21 3 25 9 4 12 14 9 27 -9
33 -23 34 -23 1z"/>
<path d="M5710 9450 c0 -5 5 -10 10 -10 6 0 10 5 10 10 0 6 -4 10 -10 10 -5 0
-10 -4 -10 -10z"/>
<path d="M5496 9437 c-13 -10 -15 -16 -8 -21 7 -4 17 -4 22 -1 6 3 10 1 10 -4
0 -6 -4 -11 -10 -11 -5 0 -10 -4 -10 -10 0 -5 4 -10 9 -10 14 0 23 37 14 55
-8 13 -12 13 -27 2z"/>
<path d="M5904 9417 c-3 -9 1 -23 9 -31 21 -21 30 3 11 28 -12 17 -14 17 -20
3z"/>
<path d="M5268 9375 c2 -14 6 -25 8 -25 2 0 4 11 4 25 0 14 -4 25 -9 25 -4 0
-6 -11 -3 -25z"/>
<path d="M5603 9357 c2 -31 4 -34 20 -25 18 9 18 10 0 31 -10 12 -19 24 -20
26 -1 1 -1 -13 0 -32z"/>
<path d="M5829 9386 c-3 -5 -6 -53 -2 -58 2 -4 14 -3 26 1 31 11 31 48 1 54
-13 2 -24 4 -25 3z"/>
<path d="M5431 9354 c0 -11 3 -14 6 -6 3 7 2 16 -1 19 -3 4 -6 -2 -5 -13z"/>
<path d="M5460 9360 c0 -5 5 -10 10 -10 6 0 10 5 10 10 0 6 -4 10 -10 10 -5 0
-10 -4 -10 -10z"/>
<path d="M5500 9330 c0 -5 -7 -10 -15 -10 -16 0 -20 -15 -7 -24 5 -3 16 4 25
15 20 22 21 29 7 29 -5 0 -10 -4 -10 -10z"/>
<path d="M5637 9324 c-11 -11 3 -24 18 -18 8 4 12 10 9 15 -6 11 -18 12 -27 3z"/>
<path d="M5630 9181 c0 -5 7 -11 15 -15 10 -3 15 -19 15 -46 0 -46 5 -48 43
-15 34 30 34 39 1 31 -18 -5 -25 -3 -22 5 2 7 -4 21 -14 31 -19 19 -38 24 -38
9z"/>
<path d="M5779 9138 c-1 -13 -3 -33 -4 -46 -2 -24 9 -37 25 -27 6 4 5 12 -4
20 -15 15 -11 55 5 55 5 0 9 5 9 10 0 21 -30 9 -31 -12z"/>
<path d="M5385 9120 c3 -5 8 -10 11 -10 2 0 4 5 4 10 0 6 -5 10 -11 10 -5 0
-7 -4 -4 -10z"/>
<path d="M5718 9083 c7 -3 16 -2 19 1 4 3 -2 6 -13 5 -11 0 -14 -3 -6 -6z"/>
<path d="M5858 9068 c-2 -15 -11 -24 -25 -26 -28 -4 -30 -18 -5 -24 27 -7 52
15 52 46 0 32 -17 35 -22 4z"/>
<path d="M5490 9059 c0 -5 5 -7 10 -4 6 3 10 8 10 11 0 2 -4 4 -10 4 -5 0 -10
-5 -10 -11z"/>
<path d="M5710 9040 c0 -5 5 -10 10 -10 6 0 10 5 10 10 0 6 -4 10 -10 10 -5 0
-10 -4 -10 -10z"/>
<path d="M5517 9020 c3 -11 9 -17 14 -14 14 8 10 34 -5 34 -9 0 -12 -7 -9 -20z"/>
<path d="M5893 9023 c-11 -33 -25 -45 -34 -31 -11 18 -17 8 -21 -36 -2 -25 2
-41 10 -43 7 -3 10 1 6 11 -4 11 2 19 20 26 15 5 31 21 36 35 6 15 15 23 21
19 8 -4 8 0 0 15 -14 26 -29 27 -38 4z"/>
<path d="M5585 9012 c-6 -17 -13 -21 -29 -17 -17 5 -16 3 5 -9 18 -11 35 -12
63 -6 49 11 62 24 14 15 -33 -6 -37 -5 -41 17 l-4 23 -8 -23z"/>
<path d="M5749 9014 c-10 -12 -8 -14 9 -11 28 4 36 13 18 20 -8 3 -20 -1 -27
-9z"/>
<path d="M5681 8984 c0 -11 3 -14 6 -6 3 7 2 16 -1 19 -3 4 -6 -2 -5 -13z"/>
<path d="M5784 8965 c-3 -20 -4 -39 0 -42 3 -4 6 6 6 21 0 14 7 29 15 32 19 8
20 24 0 24 -8 0 -17 -14 -21 -35z"/>
<path d="M5608 8953 c7 -3 16 -2 19 1 4 3 -2 6 -13 5 -11 0 -14 -3 -6 -6z"/>
<path d="M5665 8940 c3 -5 8 -10 11 -10 2 0 4 5 4 10 0 6 -5 10 -11 10 -5 0
-7 -4 -4 -10z"/>
<path d="M5920 8930 c0 -5 5 -10 11 -10 5 0 7 5 4 10 -3 6 -8 10 -11 10 -2 0
-4 -4 -4 -10z"/>
<path d="M6003 8925 c0 -8 4 -12 9 -9 5 3 6 10 3 15 -9 13 -12 11 -12 -6z"/>
<path d="M5958 8913 c7 -3 16 -2 19 1 4 3 -2 6 -13 5 -11 0 -14 -3 -6 -6z"/>
<path d="M6050 9100 c0 -5 5 -10 10 -10 6 0 10 5 10 10 0 6 -4 10 -10 10 -5 0
-10 -4 -10 -10z"/>
<path d="M6276 8528 c-8 -31 -8 -43 1 -34 8 8 16 56 10 56 -3 0 -7 -10 -11
-22z"/>
<path d="M6989 9761 c12 -8 51 -4 51 5 0 2 -15 4 -32 4 -23 0 -29 -3 -19 -9z"/>
<path d="M7093 9750 c-26 -27 -30 -42 -9 -34 24 9 29 -16 7 -35 -24 -21 -31
-82 -8 -62 8 6 16 8 19 5 12 -12 24 54 19 101 l-6 50 -22 -25z"/>
<path d="M6915 9740 c-16 -4 -22 -8 -12 -9 9 0 17 -5 17 -10 0 -5 11 -8 24 -7
13 0 22 4 19 9 -2 4 15 7 38 7 23 0 40 2 37 5 -9 9 -92 12 -123 5z"/>
<path d="M6834 9731 c3 -5 15 -7 26 -4 28 7 25 13 -6 13 -14 0 -23 -4 -20 -9z"/>
<path d="M6808 9713 c7 -3 16 -2 19 1 4 3 -2 6 -13 5 -11 0 -14 -3 -6 -6z"/>
<path d="M6685 9680 c-13 -6 -15 -9 -5 -9 8 0 22 4 30 9 18 12 2 12 -25 0z"/>
<path d="M6850 9680 c0 -5 9 -10 20 -10 11 0 20 5 20 10 0 6 -9 10 -20 10 -11
0 -20 -4 -20 -10z"/>
<path d="M6770 9670 c19 -13 30 -13 30 0 0 6 -10 10 -22 10 -19 0 -20 -2 -8
-10z"/>
<path d="M6800 9640 c0 -5 4 -10 9 -10 6 0 13 5 16 10 3 6 -1 10 -9 10 -9 0
-16 -4 -16 -10z"/>
<path d="M6705 9620 c-7 -12 2 -30 16 -30 12 0 12 27 0 35 -5 3 -12 1 -16 -5z"/>
<path d="M6910 9620 c0 -5 4 -10 9 -10 6 0 13 5 16 10 3 6 -1 10 -9 10 -9 0
-16 -4 -16 -10z"/>
<path d="M7005 9620 c-3 -5 -1 -10 4 -10 6 0 11 5 11 10 0 6 -2 10 -4 10 -3 0
-8 -4 -11 -10z"/>
<path d="M6640 9597 c0 -9 -4 -17 -10 -17 -5 0 -10 -4 -10 -10 0 -5 4 -10 9
-10 12 0 25 39 17 47 -3 4 -6 -1 -6 -10z"/>
<path d="M6530 9594 c0 -17 17 -36 24 -26 3 5 -1 15 -9 22 -8 7 -15 9 -15 4z"/>
<path d="M6880 9579 c0 -5 5 -7 10 -4 6 3 10 8 10 11 0 2 -4 4 -10 4 -5 0 -10
-5 -10 -11z"/>
<path d="M6945 9570 c3 -5 -1 -10 -9 -10 -12 0 -16 -10 -16 -40 0 -22 3 -40 8
-40 4 0 15 -12 25 -27 l18 -28 -5 27 c-5 20 -2 28 11 31 13 4 12 5 -5 6 -28 1
-39 27 -24 52 15 23 15 39 1 39 -5 0 -7 -4 -4 -10z"/>
<path d="M7000 9560 c0 -5 9 -10 21 -10 11 0 17 5 14 10 -3 6 -13 10 -21 10
-8 0 -14 -4 -14 -10z"/>
<path d="M6721 9557 c2 -1 12 -9 22 -16 15 -12 17 -12 11 3 -3 9 -13 16 -22
16 -8 0 -13 -1 -11 -3z"/>
<path d="M6870 9551 c0 -6 4 -13 10 -16 6 -3 7 1 4 9 -7 18 -14 21 -14 7z"/>
<path d="M7076 9550 c-15 -5 -16 -8 -3 -18 11 -9 17 -8 31 6 17 20 7 25 -28
12z"/>
<path d="M6680 9535 c0 -9 6 -12 15 -9 8 4 15 10 15 15 0 5 -7 9 -15 9 -8 0
-15 -7 -15 -15z"/>
<path d="M6790 9541 c0 -12 28 -22 35 -12 3 5 -2 12 -11 15 -21 8 -24 8 -24
-3z"/>
<path d="M6448 9503 c-7 -9 -7 -13 0 -13 6 0 13 6 15 13 4 9 6 9 6 -1 1 -7 -6
-15 -14 -18 -17 -7 -20 -39 -6 -49 6 -3 6 -17 1 -35 -5 -17 -5 -30 0 -30 4 0
11 11 14 24 3 13 9 31 12 40 4 11 1 16 -10 16 -23 0 -20 14 6 25 31 14 36 44
8 42 -12 -1 -26 -7 -32 -14z"/>
<path d="M6515 9510 c3 -5 10 -10 16 -10 5 0 9 5 9 10 0 6 -7 10 -16 10 -8 0
-12 -4 -9 -10z"/>
<path d="M6840 9491 c0 -6 4 -13 10 -16 6 -3 7 1 4 9 -7 18 -14 21 -14 7z"/>
<path d="M7070 9472 c0 -13 -6 -22 -16 -22 -8 0 -12 -4 -9 -10 10 -16 23 -12
36 11 8 15 8 24 0 32 -8 8 -11 5 -11 -11z"/>
<path d="M7017 9463 c-4 -3 -7 -11 -7 -17 0 -6 5 -5 12 2 6 6 9 14 7 17 -3 3
-9 2 -12 -2z"/>
<path d="M6402 9410 c-17 -27 -15 -35 4 -16 8 9 14 21 12 26 -2 6 -9 1 -16
-10z"/>
<path d="M6848 9423 c7 -3 16 -2 19 1 4 3 -2 6 -13 5 -11 0 -14 -3 -6 -6z"/>
<path d="M7045 9400 c3 -5 11 -10 16 -10 6 0 7 5 4 10 -3 6 -11 10 -16 10 -6
0 -7 -4 -4 -10z"/>
<path d="M6505 9390 c-3 -5 -2 -10 4 -10 5 0 13 5 16 10 3 6 2 10 -4 10 -5 0
-13 -4 -16 -10z"/>
<path d="M6940 9360 c0 -5 5 -10 10 -10 6 0 10 -7 10 -15 0 -8 5 -15 10 -15
13 0 13 6 0 31 -11 20 -30 26 -30 9z"/>
<path d="M6828 9338 c9 -9 15 -9 24 0 9 9 7 12 -12 12 -19 0 -21 -3 -12 -12z"/>
<path d="M6680 9333 c0 -7 4 -13 8 -13 4 0 8 -9 8 -20 0 -11 -4 -20 -8 -20 -4
0 -8 -5 -8 -10 0 -7 6 -7 20 0 11 6 20 15 20 19 0 14 -39 57 -40 44z"/>
<path d="M6427 9289 c-9 -6 -22 -7 -28 -3 -7 4 -10 -1 -7 -12 5 -28 45 -30 53
-4 9 27 5 31 -18 19z"/>
<path d="M6363 9262 c2 -19 -2 -37 -10 -43 -18 -16 -16 -26 6 -32 15 -4 20 2
23 27 2 17 -3 42 -10 56 -13 25 -13 25 -9 -8z"/>
<path d="M6880 9265 c0 -9 5 -15 11 -13 6 2 11 8 11 13 0 5 -5 11 -11 13 -6 2
-11 -4 -11 -13z"/>
<path d="M6720 9260 c0 -5 7 -10 15 -10 8 0 15 5 15 10 0 6 -7 10 -15 10 -8 0
-15 -4 -15 -10z"/>
<path d="M6720 9230 c0 -5 7 -10 15 -10 8 0 15 5 15 10 0 6 -7 10 -15 10 -8 0
-15 -4 -15 -10z"/>
<path d="M6858 9233 c7 -3 16 -2 19 1 4 3 -2 6 -13 5 -11 0 -14 -3 -6 -6z"/>
<path d="M6926 9224 c-9 -23 -8 -24 20 -24 20 0 25 4 20 16 -3 9 -6 18 -6 20
0 12 -29 2 -34 -12z"/>
<path d="M6800 9185 c0 -17 18 -19 38 -6 11 7 10 10 -3 15 -26 10 -35 7 -35
-9z"/>
<path d="M6900 9175 c-10 -12 -10 -15 4 -15 9 0 16 7 16 15 0 8 -2 15 -4 15
-2 0 -9 -7 -16 -15z"/>
<path d="M6611 9121 c-12 -12 -28 -21 -36 -21 -8 0 -15 -4 -15 -9 0 -6 8 -8
18 -6 12 2 18 -3 19 -18 3 -38 53 -67 58 -34 2 9 -1 17 -6 17 -5 0 -9 -4 -9
-10 0 -5 -5 -10 -12 -10 -6 0 -9 3 -5 6 3 3 2 17 -4 31 -5 15 -5 22 0 18 5 -3
13 -1 16 5 5 8 11 7 21 -1 8 -6 17 -9 21 -5 3 3 1 6 -5 6 -7 0 -12 6 -12 14 0
7 -6 19 -14 25 -12 10 -19 8 -35 -8z"/>
<path d="M6317 9087 c-3 -8 1 -14 8 -14 7 0 11 6 8 14 -3 7 -6 13 -8 13 -2 0
-5 -6 -8 -13z"/>
<path d="M6765 9080 c-3 -5 1 -10 10 -10 9 0 13 5 10 10 -3 6 -8 10 -10 10 -2
0 -7 -4 -10 -10z"/>
<path d="M6725 9039 c-4 -6 -5 -12 -2 -15 7 -7 37 7 37 17 0 13 -27 11 -35 -2z"/>
<path d="M7151 8005 c9 -8 79 -35 79 -30 0 7 -57 35 -71 35 -7 0 -10 -2 -8 -5z"/>
<path d="M7240 7965 c0 -2 10 -10 23 -16 20 -11 21 -11 8 4 -13 16 -31 23 -31
12z"/>
<path d="M7290 7944 c0 -12 246 -114 275 -114 8 0 15 -4 15 -8 0 -4 19 -13 43
-20 23 -7 49 -15 57 -18 8 -3 6 0 -5 7 -11 7 -22 15 -25 18 -3 3 -43 19 -90
35 -47 16 -127 46 -177 66 -51 21 -93 36 -93 34z"/>
<path d="M8191 7670 c14 -31 19 -36 19 -24 0 6 -7 19 -16 30 -14 18 -14 18 -3
-6z"/>
<path d="M7830 7665 c0 -4 8 -14 18 -22 16 -14 16 -14 -2 -9 -16 6 -17 4 -6
-9 9 -11 15 -13 20 -4 5 7 13 3 24 -12 9 -13 16 -19 16 -14 -1 18 -70 87 -70
70z"/>
<path d="M7522 7470 c0 -14 2 -19 5 -12 2 6 2 18 0 25 -3 6 -5 1 -5 -13z"/>
<path d="M8274 7355 c0 -49 1 -71 3 -48 2 23 2 64 0 90 -2 26 -3 8 -3 -42z"/>
<path d="M7522 7380 c0 -14 2 -19 5 -12 2 6 2 18 0 25 -3 6 -5 1 -5 -13z"/>
<path d="M7900 7331 c0 -5 5 -13 10 -16 6 -3 10 -2 10 4 0 5 -4 13 -10 16 -5
3 -10 2 -10 -4z"/>
<path d="M7880 7284 c-6 -15 -8 -29 -6 -32 3 -2 8 9 12 24 l8 29 7 -25 c6 -23
7 -23 8 -3 2 33 -18 38 -29 7z"/>
<path d="M8807 7290 c-9 -18 -2 -979 7 -1030 4 -19 8 -51 10 -70 5 -55 26
-159 38 -188 16 -41 42 -96 48 -102 35 -35 42 -50 30 -65 -18 -21 -6 -30 13
-10 15 14 17 14 27 -5 6 -11 17 -20 25 -20 8 0 15 -4 15 -10 0 -5 7 -10 15
-10 8 0 15 -4 15 -10 0 -5 8 -10 18 -11 13 0 12 -2 -5 -9 -13 -5 -23 -15 -23
-22 0 -9 3 -9 8 -2 11 16 43 25 56 15 9 -7 68 -29 96 -36 3 -1 16 -6 30 -12
14 -6 69 -20 123 -33 53 -13 97 -26 97 -30 0 -3 30 -7 68 -8 37 -1 83 -6 102
-12 19 -5 53 -10 75 -10 22 0 64 -6 93 -12 l55 -13 -6 -75 c-3 -42 -9 -84 -13
-93 -10 -26 -22 -20 -16 8 3 16 0 25 -8 25 -8 0 -10 -8 -7 -21 4 -14 -1 -23
-16 -29 -18 -7 -15 -9 19 -9 l41 -1 12 57 c14 74 14 125 -1 145 -16 18 -90 34
-228 47 -280 27 -565 128 -655 233 -71 81 -108 177 -126 326 -7 56 -15 310
-18 607 -4 281 -10 503 -14 495z"/>
<path d="M7390 7200 c-14 -11 -20 -20 -14 -20 6 0 19 9 29 20 23 25 17 25 -15
0z"/>
<path d="M8235 7133 c-4 -27 -15 -67 -26 -90 -10 -23 -19 -45 -19 -48 0 -9
-91 -166 -112 -195 -115 -153 -216 -274 -308 -370 -39 -40 -120 -146 -120
-157 0 -6 -4 -13 -8 -15 -4 -1 -23 -30 -41 -63 -74 -132 -88 -231 -50 -359 35
-117 80 -195 186 -320 66 -78 105 -111 124 -103 9 3 5 8 -11 15 -49 20 -157
150 -146 177 3 8 1 15 -4 15 -6 0 -10 -6 -10 -12 0 -9 -3 -8 -10 2 -6 9 -5 17
3 23 8 6 8 7 -3 4 -19 -5 -63 62 -95 147 -51 135 -43 288 19 389 22 35 25 37
35 20 6 -10 11 -13 11 -8 0 6 -6 17 -12 24 -10 11 -10 14 0 18 6 3 12 10 12
17 0 23 72 109 80 96 5 -9 9 -9 14 -1 4 6 2 11 -3 11 -19 0 -12 14 32 61 51
55 148 166 163 187 7 9 16 12 24 7 9 -5 11 -4 6 4 -8 13 18 43 29 33 4 -4 4 3
1 16 -7 21 1 27 27 23 5 -1 6 3 3 8 -6 10 43 91 55 91 3 0 12 14 19 30 7 17
17 30 22 30 5 0 6 5 3 10 -3 6 -2 10 2 10 8 0 75 123 79 145 1 6 9 26 17 45
16 36 33 130 24 130 -2 0 -8 -21 -12 -47z"/>
<path d="M7260 7105 c-14 -8 -20 -14 -14 -15 5 0 19 7 30 15 24 18 16 19 -16
0z"/>
<path d="M7717 7015 c-9 -7 -17 -16 -17 -21 0 -4 5 -3 12 4 17 17 28 15 21 -5
-4 -11 -3 -14 3 -8 5 5 12 12 15 15 4 3 1 10 -5 16 -9 8 -17 8 -29 -1z"/>
<path d="M7662 6960 c-7 -12 -10 -25 -7 -29 6 -10 -22 -36 -39 -36 -7 0 -36
-21 -66 -47 -30 -27 -49 -48 -41 -48 24 0 -8 -29 -43 -39 -24 -7 -27 -10 -14
-16 12 -5 36 9 82 46 36 29 66 54 66 56 0 7 -23 -8 -47 -30 -13 -11 -25 -18
-28 -15 -9 8 65 69 76 63 13 -9 72 52 64 66 -4 5 1 19 11 30 9 10 13 19 8 19
-5 0 -15 -9 -22 -20z m-42 -80 c0 -5 -4 -10 -10 -10 -5 0 -10 5 -10 10 0 6 5
10 10 10 6 0 10 -4 10 -10z"/>
<path d="M7694 6958 l-19 -23 23 19 c21 18 27 26 19 26 -2 0 -12 -10 -23 -22z"/>
<path d="M6815 6830 c-3 -6 1 -7 9 -4 18 7 21 14 7 14 -6 0 -13 -4 -16 -10z"/>
<path d="M6760 6790 c-9 -6 -10 -10 -3 -10 6 0 15 5 18 10 8 12 4 12 -15 0z"/>
<path d="M7470 6785 c-11 -13 -10 -14 4 -9 9 3 16 10 16 15 0 13 -6 11 -20 -6z"/>
<path d="M5918 6693 c7 -3 16 -2 19 1 4 3 -2 6 -13 5 -11 0 -14 -3 -6 -6z"/>
<path d="M6545 6574 c-9 -15 -12 -23 -6 -20 11 7 35 46 28 46 -3 0 -12 -12
-22 -26z"/>
<path d="M7175 6513 c-41 -42 -73 -78 -71 -80 2 -2 36 29 74 69 39 40 74 69
78 65 7 -6 -20 -40 -68 -85 -10 -9 -18 -20 -18 -25 0 -5 -10 -22 -22 -37 -13
-15 -30 -38 -38 -50 -8 -13 -22 -31 -30 -39 -8 -9 -22 -29 -30 -45 -15 -28
-50 -55 -50 -37 0 5 6 12 13 14 9 4 9 6 0 6 -8 1 -3 15 12 37 14 20 25 44 25
53 0 9 -14 -8 -30 -38 -17 -30 -30 -60 -30 -67 0 -17 15 -25 32 -19 15 7 118
149 118 164 0 6 4 11 8 11 4 0 15 12 24 28 10 15 37 50 62 77 51 56 53 60 31
69 -10 4 -40 -20 -90 -71z"/>
<path d="M6081 6404 c0 -11 3 -14 6 -6 3 7 2 16 -1 19 -3 4 -6 -2 -5 -13z"/>
<path d="M7072 6399 c-11 -17 -11 -24 -1 -33 9 -8 10 -8 4 2 -4 8 0 21 11 33
9 10 13 19 8 19 -5 0 -15 -10 -22 -21z"/>
<path d="M6391 6343 c-10 -26 -10 -27 4 -9 8 11 15 23 15 28 0 15 -7 8 -19
-19z"/>
<path d="M5411 6304 c0 -11 3 -14 6 -6 3 7 2 16 -1 19 -3 4 -6 -2 -5 -13z"/>
<path d="M6036 6305 c-9 -26 -7 -32 5 -12 6 10 9 21 6 23 -2 3 -7 -2 -11 -11z"/>
<path d="M6363 6295 c-3 -9 -3 -18 -1 -21 3 -3 8 4 11 16 6 23 -1 27 -10 5z"/>
<path d="M8540 6260 c0 -5 5 -10 10 -10 6 0 10 5 10 10 0 6 -4 10 -10 10 -5 0
-10 -4 -10 -10z"/>
<path d="M8058 6223 c7 -3 16 -2 19 1 4 3 -2 6 -13 5 -11 0 -14 -3 -6 -6z"/>
<path d="M8435 6200 c-3 -6 1 -7 9 -4 18 7 21 14 7 14 -6 0 -13 -4 -16 -10z"/>
<path d="M6307 6160 c-11 -30 -12 -42 -4 -47 7 -3 9 -3 5 1 -3 4 0 24 8 43 9
19 13 37 11 39 -2 2 -11 -14 -20 -36z"/>
<path d="M8278 6193 c7 -3 16 -2 19 1 4 3 -2 6 -13 5 -11 0 -14 -3 -6 -6z"/>
<path d="M8232 6170 c0 -14 2 -19 5 -12 2 6 2 18 0 25 -3 6 -5 1 -5 -13z"/>
<path d="M5899 6153 c-13 -16 -12 -17 4 -4 9 7 17 15 17 17 0 8 -8 3 -21 -13z"/>
<path d="M8551 6161 c-8 -6 -9 -11 -3 -15 6 -3 14 -1 17 5 9 14 2 20 -14 10z"/>
<path d="M8425 6150 c-3 -5 3 -10 14 -10 12 0 21 5 21 10 0 6 -6 10 -14 10 -8
0 -18 -4 -21 -10z"/>
<path d="M5866 6114 c-23 -23 -20 -30 4 -9 11 10 20 20 20 22 0 7 -9 2 -24
-13z"/>
<path d="M8075 6110 c3 -5 8 -10 11 -10 2 0 4 5 4 10 0 6 -5 10 -11 10 -5 0
-7 -4 -4 -10z"/>
<path d="M8355 6110 c3 -5 8 -10 11 -10 2 0 4 5 4 10 0 6 -5 10 -11 10 -5 0
-7 -4 -4 -10z"/>
<path d="M8821 6094 c0 -11 3 -14 6 -6 3 7 2 16 -1 19 -3 4 -6 -2 -5 -13z"/>
<path d="M6281 6084 c0 -11 3 -14 6 -6 3 7 2 16 -1 19 -3 4 -6 -2 -5 -13z"/>
<path d="M5830 6058 c-12 -22 -12 -22 6 -6 10 10 15 20 12 24 -4 3 -12 -5 -18
-18z"/>
<path d="M6272 6040 c0 -14 2 -19 5 -12 2 6 2 18 0 25 -3 6 -5 1 -5 -13z"/>
<path d="M8370 6050 c0 -5 5 -10 10 -10 6 0 10 5 10 10 0 6 -4 10 -10 10 -5 0
-10 -4 -10 -10z"/>
<path d="M8552 6039 c-7 -11 -9 -25 -5 -32 4 -7 10 0 15 18 9 36 6 40 -10 14z"/>
<path d="M8690 6045 c0 -8 4 -15 10 -15 5 0 7 7 4 15 -4 8 -8 15 -10 15 -2 0
-4 -7 -4 -15z"/>
<path d="M8630 6040 c-9 -6 -10 -10 -3 -10 6 0 14 -8 16 -17 3 -11 5 -7 6 10
1 30 1 30 -19 17z"/>
<path d="M8822 6030 c0 -14 2 -19 5 -12 2 6 2 18 0 25 -3 6 -5 1 -5 -13z"/>
<path d="M8275 6023 c-19 -15 -19 -15 -1 -9 10 3 25 1 32 -5 11 -9 14 -8 14 4
0 22 -23 27 -45 10z"/>
<path d="M8488 6033 c7 -3 16 -2 19 1 4 3 -2 6 -13 5 -11 0 -14 -3 -6 -6z"/>
<path d="M5811 6004 c0 -11 3 -14 6 -6 3 7 2 16 -1 19 -3 4 -6 -2 -5 -13z"/>
<path d="M6895 6004 c-8 -8 -15 -23 -15 -32 0 -9 -5 -50 -10 -90 -12 -90 9
-243 47 -352 31 -90 47 -110 84 -110 36 0 44 14 25 47 -54 101 -89 282 -81
423 5 97 4 106 -14 117 -16 10 -23 10 -36 -3z m45 -26 c0 -5 -3 -7 -7 -5 -5 3
-7 -52 -7 -121 2 -167 3 -182 13 -182 5 0 11 -19 15 -42 4 -23 12 -49 19 -57
7 -8 7 -12 1 -8 -6 3 0 -16 13 -44 13 -27 21 -54 18 -59 -3 -6 1 -10 10 -10 9
0 14 -4 10 -9 -10 -18 -63 9 -73 37 -58 156 -65 195 -66 343 -1 107 2 150 12
162 14 16 42 13 42 -5z"/>
<path d="M6910 5655 c0 -5 5 -17 10 -25 5 -8 10 -10 10 -5 0 6 -5 17 -10 25
-5 8 -10 11 -10 5z"/>
<path d="M6262 5990 c0 -14 2 -19 5 -12 2 6 2 18 0 25 -3 6 -5 1 -5 -13z"/>
<path d="M8120 6000 c0 -5 5 -10 10 -10 6 0 10 5 10 10 0 6 -4 10 -10 10 -5 0
-10 -4 -10 -10z"/>
<path d="M8507 6003 c-4 -3 -7 -11 -7 -17 0 -6 5 -5 12 2 6 6 9 14 7 17 -3 3
-9 2 -12 -2z"/>
<path d="M8841 5994 c0 -11 3 -14 6 -6 3 7 2 16 -1 19 -3 4 -6 -2 -5 -13z"/>
<path d="M7576 5975 c4 -8 8 -15 10 -15 2 0 4 7 4 15 0 8 -4 15 -10 15 -5 0
-7 -7 -4 -15z"/>
<path d="M5803 5920 c0 -30 2 -43 4 -27 2 15 2 39 0 55 -2 15 -4 2 -4 -28z"/>
<path d="M8550 5959 c0 -5 4 -8 9 -5 5 4 11 0 14 -6 2 -7 8 -10 12 -6 4 4 4
11 0 17 -8 14 -35 14 -35 0z"/>
<path d="M8365 5950 c3 -5 8 -10 11 -10 2 0 4 5 4 10 0 6 -5 10 -11 10 -5 0
-7 -4 -4 -10z"/>
<path d="M6242 5925 c0 -16 2 -22 5 -12 2 9 2 23 0 30 -3 6 -5 -1 -5 -18z"/>
<path d="M8510 5930 c0 -5 6 -10 14 -10 8 0 16 -6 19 -12 2 -7 8 -10 12 -6 9
8 -18 38 -34 38 -6 0 -11 -4 -11 -10z"/>
<path d="M5412 5880 c0 -14 2 -19 5 -12 2 6 2 18 0 25 -3 6 -5 1 -5 -13z"/>
<path d="M6227 5753 c-6 -114 -1 -332 8 -341 2 -2 3 102 3 232 0 130 -1 236
-2 236 -2 0 -6 -57 -9 -127z"/>
<path d="M7745 5870 c3 -5 8 -10 11 -10 2 0 4 5 4 10 0 6 -5 10 -11 10 -5 0
-7 -4 -4 -10z"/>
<path d="M5812 5845 c0 -11 3 -29 8 -40 11 -25 11 1 0 35 -6 20 -8 21 -8 5z"/>
<path d="M5421 5834 c0 -11 3 -14 6 -6 3 7 2 16 -1 19 -3 4 -6 -2 -5 -13z"/>
<path d="M8700 5840 c0 -5 5 -10 11 -10 5 0 7 5 4 10 -3 6 -8 10 -11 10 -2 0
-4 -4 -4 -10z"/>
<path d="M7870 5830 c0 -5 5 -10 10 -10 6 0 10 5 10 10 0 6 -4 10 -10 10 -5 0
-10 -4 -10 -10z"/>
<path d="M7970 5820 c0 -5 4 -10 9 -10 6 0 13 5 16 10 3 6 -1 10 -9 10 -9 0
-16 -4 -16 -10z"/>
<path d="M8470 5815 c0 -8 4 -15 10 -15 5 0 7 7 4 15 -4 8 -8 15 -10 15 -2 0
-4 -7 -4 -15z"/>
<path d="M8348 5803 c7 -3 16 -2 19 1 4 3 -2 6 -13 5 -11 0 -14 -3 -6 -6z"/>
<path d="M8964 5776 c-1 -17 1 -25 3 -18 3 6 11 12 19 12 20 0 18 17 -3 29
-15 8 -18 4 -19 -23z"/>
<path d="M8100 5790 c0 -5 5 -10 10 -10 6 0 10 5 10 10 0 6 -4 10 -10 10 -5 0
-10 -4 -10 -10z"/>
<path d="M5841 5754 c0 -11 3 -14 6 -6 3 7 2 16 -1 19 -3 4 -6 -2 -5 -13z"/>
<path d="M5460 5741 c0 -6 4 -13 10 -16 6 -3 7 1 4 9 -7 18 -14 21 -14 7z"/>
<path d="M5851 5704 c0 -11 3 -14 6 -6 3 7 2 16 -1 19 -3 4 -6 -2 -5 -13z"/>
<path d="M8865 5713 c-11 -2 -30 -6 -42 -9 -38 -8 -25 -19 22 -19 37 0 45 3
45 17 0 10 -1 17 -2 17 -2 -1 -12 -3 -23 -6z"/>
<path d="M8931 5699 c19 -29 109 -38 109 -11 0 14 -8 17 -45 14 -28 -3 -45 0
-45 7 0 6 -7 11 -16 11 -14 0 -15 -3 -3 -21z"/>
<path d="M9112 5690 c7 -10 14 -18 15 -16 6 6 -9 36 -18 36 -5 0 -4 -9 3 -20z"/>
<path d="M9140 5700 c0 -5 5 -10 11 -10 5 0 7 5 4 10 -3 6 -8 10 -11 10 -2 0
-4 -4 -4 -10z"/>
<path d="M5500 5672 c6 -13 14 -21 18 -18 3 4 -2 14 -12 24 -18 16 -18 16 -6
-6z"/>
<path d="M9190 5670 c6 -4 23 -5 38 -3 27 4 27 4 7 -13 -18 -15 -18 -16 -2
-10 10 3 23 6 29 6 6 0 6 6 -2 15 -7 8 -27 14 -46 13 -19 -1 -30 -4 -24 -8z"/>
<path d="M8040 5660 c0 -5 5 -10 10 -10 6 0 10 5 10 10 0 6 -4 10 -10 10 -5 0
-10 -4 -10 -10z"/>
<path d="M8840 5660 c0 -5 4 -10 9 -10 6 0 13 5 16 10 3 6 -1 10 -9 10 -9 0
-16 -4 -16 -10z"/>
<path d="M9156 5661 c-3 -5 1 -11 9 -14 9 -4 12 -1 8 9 -6 16 -10 17 -17 5z"/>
<path d="M8905 5650 c-3 -5 -1 -10 4 -10 6 0 11 5 11 10 0 6 -2 10 -4 10 -3 0
-8 -4 -11 -10z"/>
<path d="M7985 5640 c3 -5 8 -10 11 -10 2 0 4 5 4 10 0 6 -5 10 -11 10 -5 0
-7 -4 -4 -10z"/>
<path d="M8108 5643 c6 -2 18 -2 25 0 6 3 1 5 -13 5 -14 0 -19 -2 -12 -5z"/>
<path d="M9048 5642 c13 -4 23 -11 22 -17 -1 -5 4 -11 10 -13 7 -3 10 3 8 14
-2 13 -13 20 -33 21 -26 2 -27 1 -7 -5z"/>
<path d="M9128 5638 c5 -5 16 -8 23 -6 8 3 3 7 -10 11 -17 4 -21 3 -13 -5z"/>
<path d="M7740 5619 c0 -5 5 -7 10 -4 6 3 10 8 10 11 0 2 -4 4 -10 4 -5 0 -10
-5 -10 -11z"/>
<path d="M8530 5620 c0 -5 5 -10 10 -10 6 0 10 5 10 10 0 6 -4 10 -10 10 -5 0
-10 -4 -10 -10z"/>
<path d="M8817 5614 c-8 -8 1 -24 14 -24 5 0 9 7 9 15 0 15 -12 20 -23 9z"/>
<path d="M8946 5611 c-4 -7 -5 -15 -2 -18 9 -9 19 4 14 18 -4 11 -6 11 -12 0z"/>
<path d="M8900 5585 c0 -14 4 -25 9 -25 12 0 23 29 15 41 -10 18 -24 9 -24
-16z"/>
<path d="M9186 5601 c-4 -7 -5 -15 -2 -18 9 -9 19 4 14 18 -4 11 -6 11 -12 0z"/>
<path d="M9366 5601 c-6 -10 52 -24 65 -15 5 3 9 9 9 15 0 11 -67 12 -74 0z"/>
<path d="M9513 5603 c9 -2 23 -2 30 0 6 3 -1 5 -18 5 -16 0 -22 -2 -12 -5z"/>
<path d="M8307 5580 c-3 -12 0 -20 8 -20 8 0 11 8 8 20 -3 11 -7 20 -8 20 -1
0 -5 -9 -8 -20z"/>
<path d="M9230 5589 c-11 -6 -12 -9 -2 -9 7 0 10 -4 7 -10 -3 -5 -2 -10 3 -10
13 0 23 28 14 34 -5 3 -14 1 -22 -5z"/>
<path d="M9598 5593 c6 -2 18 -2 25 0 6 3 1 5 -13 5 -14 0 -19 -2 -12 -5z"/>
<path d="M5824 5574 c-18 -14 -18 -15 4 -4 12 6 22 13 22 15 0 8 -5 6 -26 -11z"/>
<path d="M9000 5580 c0 -5 5 -10 10 -10 6 0 10 5 10 10 0 6 -4 10 -10 10 -5 0
-10 -4 -10 -10z"/>
<path d="M9505 5579 c-15 -7 -11 -7 14 -3 23 4 31 3 27 -5 -4 -6 -2 -11 3 -11
6 0 11 7 11 15 0 17 -24 19 -55 4z"/>
<path d="M9636 5575 c-6 -17 29 -21 52 -6 11 7 10 10 -3 15 -27 10 -42 7 -49
-9z"/>
<path d="M9745 5580 c27 -12 43 -12 25 0 -8 5 -22 9 -30 9 -10 0 -8 -3 5 -9z"/>
<path d="M5630 5570 c8 -5 20 -10 25 -10 6 0 3 5 -5 10 -8 5 -19 10 -25 10 -5
0 -3 -5 5 -10z"/>
<path d="M8815 5570 c-3 -5 1 -10 9 -10 9 0 16 5 16 10 0 6 -4 10 -9 10 -6 0
-13 -4 -16 -10z"/>
<path d="M7736 5558 c3 -5 10 -6 15 -3 13 9 11 12 -6 12 -8 0 -12 -4 -9 -9z"/>
<path d="M8518 5563 c7 -3 16 -2 19 1 4 3 -2 6 -13 5 -11 0 -14 -3 -6 -6z"/>
<path d="M8625 5560 c-3 -5 -4 -14 0 -20 8 -13 35 -1 35 16 0 16 -26 19 -35 4z"/>
<path d="M9340 5560 c0 -5 7 -10 16 -10 8 0 12 5 9 10 -3 6 -10 10 -16 10 -5
0 -9 -4 -9 -10z"/>
<path d="M5679 5547 c5 -5 28 -7 52 -5 l44 3 -52 5 c-29 3 -48 1 -44 -3z"/>
<path d="M8445 5550 c3 -5 8 -10 11 -10 2 0 4 5 4 10 0 6 -5 10 -11 10 -5 0
-7 -4 -4 -10z"/>
<path d="M8720 5549 c0 -5 5 -7 10 -4 6 3 10 8 10 11 0 2 -4 4 -10 4 -5 0 -10
-5 -10 -11z"/>
<path d="M8880 5551 c0 -5 -8 -12 -17 -14 -10 -3 -1 -5 21 -6 33 -1 37 1 26
14 -14 17 -30 20 -30 6z"/>
<path d="M9002 5548 c3 -7 18 -14 34 -16 28 -2 28 -2 10 13 -24 18 -49 20 -44
3z"/>
<path d="M8320 5534 c0 -8 5 -12 10 -9 6 4 8 11 5 16 -9 14 -15 11 -15 -7z"/>
<path d="M8493 5543 c9 -2 23 -2 30 0 6 3 -1 5 -18 5 -16 0 -22 -2 -12 -5z"/>
<path d="M9137 5520 c-4 -16 0 -20 22 -20 19 0 27 5 27 18 0 26 -42 27 -49 2z"/>
<path d="M9200 5530 c0 -8 5 -22 10 -30 9 -13 10 -13 10 0 0 8 -5 22 -10 30
-9 13 -10 13 -10 0z"/>
<path d="M9285 5530 c-3 -5 1 -10 9 -10 8 0 18 5 21 10 3 6 -1 10 -9 10 -8 0
-18 -4 -21 -10z"/>
<path d="M9598 5516 c-4 -17 -1 -23 9 -19 14 6 18 43 4 43 -5 0 -11 -11 -13
-24z"/>
<path d="M9697 5534 c-9 -10 2 -24 19 -24 8 0 14 7 14 15 0 15 -21 21 -33 9z"/>
<path d="M9375 5520 c-4 -6 -11 -8 -16 -5 -5 4 -9 1 -9 -4 0 -6 9 -11 20 -11
11 0 20 7 20 15 0 17 -6 19 -15 5z"/>
<path d="M9510 5483 c-13 -15 -12 -16 4 -10 10 4 20 7 22 7 2 0 4 5 4 10 0 15
-13 12 -30 -7z"/>
<path d="M9761 5495 c-1 -16 13 -30 32 -31 19 -2 21 4 7 26 -8 12 -11 13 -19
1 -7 -11 -9 -11 -14 0 -3 8 -6 10 -6 4z"/>
<path d="M7820 5486 c0 -2 7 -7 16 -10 8 -3 12 -2 9 4 -6 10 -25 14 -25 6z"/>
<path d="M8568 5473 c7 -3 16 -2 19 1 4 3 -2 6 -13 5 -11 0 -14 -3 -6 -6z"/>
<path d="M9635 5470 c-19 -7 -18 -8 6 -18 15 -6 29 -17 32 -24 4 -8 6 -7 6 5
1 9 -3 17 -8 17 -5 0 -11 6 -13 14 -2 9 -10 11 -23 6z"/>
<path d="M9695 5470 c-4 -6 -2 -17 4 -23 15 -15 25 -2 13 19 -7 12 -11 13 -17
4z"/>
<path d="M9360 5456 c0 -9 7 -16 16 -16 9 0 14 5 12 12 -6 18 -28 21 -28 4z"/>
<path d="M7880 5450 c0 -5 5 -10 11 -10 5 0 7 5 4 10 -3 6 -8 10 -11 10 -2 0
-4 -4 -4 -10z"/>
<path d="M9456 5443 c-4 -4 -13 -8 -19 -9 -7 0 -20 -2 -29 -2 -35 -3 -17 -17
24 -19 22 -2 38 0 35 4 -4 3 -2 12 4 20 12 13 -2 19 -15 6z"/>
<path d="M9558 5443 c7 -3 16 -2 19 1 4 3 -2 6 -13 5 -11 0 -14 -3 -6 -6z"/>
<path d="M9740 5440 c0 -5 5 -10 10 -10 6 0 10 5 10 10 0 6 -4 10 -10 10 -5 0
-10 -4 -10 -10z"/>
<path d="M8586 5433 c-11 -11 -6 -23 8 -23 8 0 17 4 20 9 7 10 -19 23 -28 14z"/>
<path d="M8883 5432 c-33 -5 -28 -19 7 -20 17 0 30 3 30 8 0 13 -12 17 -37 12z"/>
<path d="M8386 5421 c-3 -5 5 -8 19 -8 14 0 22 3 19 8 -3 5 -11 9 -19 9 -8 0
-16 -4 -19 -9z"/>
<path d="M8670 5419 c0 -5 5 -7 10 -4 6 3 10 8 10 11 0 2 -4 4 -10 4 -5 0 -10
-5 -10 -11z"/>
<path d="M8740 5420 c-11 -7 -5 -10 23 -10 20 0 37 5 37 10 0 13 -40 13 -60 0z"/>
<path d="M8970 5420 c0 -5 9 -10 20 -10 11 0 20 5 20 10 0 6 -9 10 -20 10 -11
0 -20 -4 -20 -10z"/>
<path d="M9025 5420 c-3 -5 -1 -10 4 -10 6 0 11 5 11 10 0 6 -2 10 -4 10 -3 0
-8 -4 -11 -10z"/>
<path d="M9115 5420 c-8 -13 5 -13 25 0 13 8 13 10 -2 10 -9 0 -20 -4 -23 -10z"/>
<path d="M9233 5424 c10 -10 127 -12 127 -3 0 5 -30 9 -67 9 -36 0 -64 -3 -60
-6z"/>
<path d="M9531 5426 c8 -9 99 -12 99 -4 0 4 -23 8 -52 8 -28 0 -49 -2 -47 -4z"/>
<path d="M9498 5413 c7 -3 16 -2 19 1 4 3 -2 6 -13 5 -11 0 -14 -3 -6 -6z"/>
<path d="M9690 5410 c-8 -5 -7 -9 4 -13 19 -8 80 3 71 12 -9 9 -61 10 -75 1z"/>
<path d="M4668 5383 c6 -2 18 -2 25 0 6 3 1 5 -13 5 -14 0 -19 -2 -12 -5z"/>
<path d="M4200 4850 c-208 -25 -328 -171 -290 -354 6 -31 16 -56 21 -56 6 0 8
-4 5 -9 -3 -4 16 -30 42 -56 36 -37 77 -63 172 -107 197 -93 226 -112 256
-170 18 -35 18 -121 -1 -158 -44 -85 -177 -108 -303 -54 l-40 18 -11 86 c-6
48 -11 96 -11 108 0 20 -5 22 -50 22 -27 0 -50 -3 -50 -6 0 -4 -11 -63 -25
-132 -14 -68 -24 -126 -23 -127 2 -1 28 -14 59 -28 162 -73 410 -74 550 -2 30
16 118 101 120 116 2 14 5 22 17 52 28 67 5 190 -49 258 -62 79 -130 126 -279
192 -101 45 -177 98 -190 133 -15 38 -12 91 6 125 41 80 227 93 299 21 19 -19
25 -35 25 -71 0 -25 3 -63 6 -83 7 -38 7 -38 54 -38 l47 0 22 108 c12 59 25
117 28 129 4 19 -3 24 -74 46 -70 22 -110 30 -233 41 -19 2 -64 0 -100 -4z"/>
<path d="M4804 4790 c3 -25 8 -102 12 -172 l7 -128 47 0 47 0 16 88 c10 48 17
95 17 104 0 37 27 48 121 48 l89 0 0 -424 c0 -396 -1 -425 -17 -430 -10 -2
-50 -12 -89 -22 -70 -17 -71 -18 -61 -44 l10 -25 268 0 268 0 10 23 c6 13 11
24 11 26 0 2 -21 9 -47 15 -27 7 -65 16 -85 22 l-38 10 0 424 0 425 93 0 c50
0 98 -4 105 -9 9 -5 52 -193 52 -228 0 -2 23 -3 50 -3 l50 0 0 83 c0 46 3 124
6 173 l7 89 -478 0 -477 0 6 -45z"/>
<path d="M5861 4808 c-10 -29 -8 -31 95 -57 l40 -11 3 -318 c1 -175 -1 -371
-4 -434 l-8 -116 -67 -18 c-66 -17 -68 -18 -59 -43 l9 -26 426 0 427 0 -7 74
c-3 41 -6 114 -6 163 l0 88 -50 0 c-49 0 -49 0 -56 -37 -28 -161 -26 -155 -74
-170 -54 -17 -285 -30 -293 -16 -3 5 -9 91 -13 191 l-7 182 90 0 89 0 24 -75
24 -75 40 0 41 0 -2 197 -2 198 -39 3 -39 3 -22 -74 c-21 -73 -23 -75 -59 -81
-56 -9 -130 -7 -137 3 -3 6 -2 91 1 190 l7 181 111 -1 c71 0 132 -7 170 -17
58 -17 58 -17 62 -58 2 -23 7 -59 12 -80 8 -38 9 -39 54 -42 45 -3 46 -2 51
30 2 18 5 82 6 141 1 60 4 114 7 120 3 9 -96 12 -416 12 l-420 0 -9 -27z"/>
<path d="M6836 4815 c-3 -11 -6 -23 -6 -27 0 -4 31 -16 68 -28 l69 -20 7 -175
c3 -96 3 -291 0 -434 l-7 -260 -72 -16 c-63 -14 -72 -19 -68 -36 3 -11 10 -22
16 -26 6 -4 125 -7 264 -7 l253 -1 9 26 c8 25 7 26 -43 38 -28 7 -68 17 -88
22 l-38 10 0 158 0 158 113 5 c131 7 201 29 276 88 93 74 138 199 112 314 -7
31 -18 62 -24 69 -7 7 -13 19 -15 27 -6 25 -54 69 -103 95 -65 34 -115 38
-436 39 -274 1 -282 0 -287 -19z m536 -76 c58 -28 99 -116 99 -214 0 -68 -7
-106 -28 -147 -7 -15 -14 -31 -15 -35 0 -5 -15 -18 -32 -31 -27 -20 -41 -22
-111 -20 l-80 3 -3 222 -2 222 27 4 c57 8 123 7 145 -4z"/>
<path d="M8533 4745 c-51 -32 -106 -54 -185 -76 -62 -17 -114 -32 -116 -34 -1
-1 3 -16 9 -33 l11 -32 93 0 94 0 6 -52 c8 -67 2 -614 -7 -623 -6 -7 -31 -13
-140 -35 l-57 -11 13 -30 13 -30 293 0 293 0 13 30 13 30 -57 11 c-107 22
-134 28 -139 34 -3 3 -5 206 -5 451 l1 445 -37 0 c-26 -1 -59 -14 -109 -45z"/>
<path d="M7192 3619 c-18 -5 -30 -14 -27 -19 3 -6 -1 -7 -10 -4 -19 8 -110
-80 -100 -96 3 -5 2 -10 -4 -10 -17 0 -35 -73 -34 -140 0 -73 33 -167 54 -154
7 4 9 3 5 -4 -11 -19 93 -100 113 -88 5 4 12 2 16 -4 8 -13 89 -13 135 0 20 5
57 23 83 40 43 27 47 32 37 51 -11 19 -13 19 -33 4 -77 -56 -166 -63 -225 -19
-20 16 -41 28 -45 26 -5 -1 -6 1 -4 6 3 4 -3 32 -13 62 -36 104 -17 237 42
292 26 24 36 27 72 22 22 -3 60 -12 83 -20 41 -15 43 -18 49 -65 6 -42 10 -49
29 -49 19 0 23 8 34 66 7 37 8 70 4 74 -32 28 -202 48 -261 29z"/>
<path d="M6654 3573 c-31 -85 -112 -277 -149 -357 -30 -62 -44 -80 -67 -88
-53 -19 -26 -33 61 -33 88 0 129 17 71 30 -34 7 -34 10 -19 53 12 36 30 42
127 42 l73 0 15 -35 c19 -47 18 -52 -15 -60 -20 -4 -28 -11 -24 -21 6 -16 63
-19 63 -3 0 5 3 8 8 6 17 -11 166 -11 169 0 2 6 -9 14 -25 18 -27 5 -35 19
-87 138 -49 113 -116 278 -138 340 -13 35 -44 20 -63 -30z m76 -304 c0 -5 -34
-9 -75 -9 -41 0 -75 3 -75 8 0 4 13 41 28 82 16 41 32 84 36 95 6 16 16 1 47
-74 21 -51 39 -97 39 -102z"/>
<path d="M7765 3593 c-9 -36 -113 -286 -160 -385 -30 -64 -41 -78 -65 -83 -16
-4 -27 -11 -24 -18 6 -16 176 -16 181 0 2 6 -8 14 -23 17 -24 6 -26 10 -21 43
4 19 8 37 10 39 9 9 137 16 170 10 26 -5 37 -13 41 -30 3 -13 9 -31 12 -39 4
-11 -4 -17 -26 -22 -17 -4 -29 -12 -27 -18 2 -8 38 -11 115 -10 124 2 155 10
101 28 -32 11 -38 21 -106 176 -39 90 -84 199 -99 242 -23 65 -31 77 -50 77
-16 0 -24 -8 -29 -27z m37 -235 c21 -50 38 -93 38 -95 0 -1 -34 -3 -75 -3 -49
0 -75 4 -75 11 0 19 64 189 69 184 2 -3 22 -46 43 -97z"/>
<path d="M8110 3605 c0 -8 14 -17 35 -21 l35 -6 0 -220 c0 -211 -1 -220 -20
-225 -11 -3 -20 -9 -20 -14 0 -5 -7 -6 -15 -3 -9 4 -15 1 -15 -7 0 -11 31 -14
158 -14 159 1 217 9 205 28 -3 6 -1 7 6 3 7 -5 26 2 44 14 132 91 143 317 20
419 -62 51 -108 61 -280 61 -127 0 -153 -2 -153 -15z m324 -56 c77 -67 99
-234 47 -343 -33 -68 -58 -81 -129 -70 l-57 9 -3 218 -2 217 54 0 c47 0 60 -4
90 -31z"/>
<path d="M8700 3606 c0 -8 13 -17 29 -21 24 -5 30 -13 35 -43 8 -49 8 -307 0
-365 -6 -40 -10 -47 -35 -52 -16 -4 -29 -12 -29 -18 0 -9 59 -13 215 -14 l216
-2 -5 27 c-2 15 -5 53 -5 85 -1 55 -2 58 -23 55 -18 -2 -25 -12 -31 -49 -11
-57 -32 -69 -122 -69 l-65 0 0 100 0 100 44 -2 c42 -3 45 -5 56 -40 8 -27 16
-38 30 -38 19 0 20 7 20 96 0 93 -1 95 -22 92 -15 -2 -25 -13 -32 -35 -8 -31
-12 -33 -52 -33 l-44 0 0 95 0 95 64 0 c84 0 116 -12 116 -44 0 -37 10 -56 30
-56 19 0 30 41 30 113 l0 37 -210 0 c-175 0 -210 -2 -210 -14z"/>
<path d="M9197 3613 c-14 -13 -6 -20 34 -32 l41 -12 -6 -97 c-3 -53 -9 -150
-12 -215 -5 -89 -10 -119 -20 -123 -8 -2 -22 -7 -31 -11 -10 -3 -22 -5 -26 -4
-5 1 -7 -3 -5 -9 4 -14 217 -19 221 -5 2 6 -15 15 -37 20 l-41 11 -3 159 c-1
87 1 162 6 167 4 4 34 -46 66 -112 33 -65 64 -116 69 -113 6 3 7 1 3 -5 -3 -6
7 -41 24 -77 44 -96 60 -90 114 45 24 58 62 146 86 195 l44 90 7 -105 c4 -58
7 -137 8 -176 l1 -72 -35 -6 c-19 -4 -35 -12 -35 -19 0 -9 34 -12 125 -12 91
0 125 3 125 12 0 7 -15 15 -34 18 l-34 7 -6 146 c-3 81 -9 179 -11 218 -5 68
-5 71 20 82 14 7 32 12 40 12 8 0 12 6 9 14 -4 10 -28 14 -97 15 l-92 1 -39
-103 c-49 -128 -107 -257 -116 -257 -4 0 -15 15 -25 34 -11 19 -23 32 -28 29
-6 -3 -7 -1 -4 4 9 14 -77 196 -88 186 -4 -4 -5 -2 -1 4 4 7 -2 33 -13 58
l-20 45 -89 0 c-49 0 -92 -3 -95 -7z"/>
<path d="M9970 3606 c0 -7 12 -16 28 -19 22 -5 34 -20 66 -86 22 -44 44 -77
49 -74 6 3 7 1 4 -4 -4 -6 7 -41 24 -78 26 -57 29 -76 27 -138 l-3 -71 -42
-11 c-74 -18 -35 -30 100 -30 88 0 127 3 127 11 0 7 -19 16 -42 22 l-43 11 5
93 c5 90 7 98 68 221 56 114 65 128 92 134 17 3 30 12 30 19 0 11 -21 14 -95
14 -78 0 -95 -3 -95 -15 0 -8 9 -15 19 -15 36 0 51 -10 41 -28 -9 -15 -53
-131 -67 -174 -11 -37 -25 -16 -83 124 -29 69 -29 78 2 78 10 0 18 7 18 15 0
12 -19 15 -115 15 -91 0 -115 -3 -115 -14z"/>
</g>
</svg>
